{"asset":{"version":"2.0","generator":"VECTARY"},"nodes":[{"translation":[-0.055399410302499466,0.010040440384860074,-0.00007806479927260935],"scale":[0.0008875966581149524,0.0008875966581149524,0.001],"rotation":[0.2959209147583053,0.642207764051952,0.6422077640519521,-0.29592091475830534],"name":"Cylinder","mesh":0},{"translation":[-0.0003994103024994615,0.00004044038486012624,-0.00007806479927261022],"scale":[0.001,0.001,0.001],"rotation":[-0.5,0.4999999999999999,0.5,0.5000000000000001],"name":"Base","mesh":1},{"translation":[0.07324998423916289,0.010040440384860076,-0.027056690281959363],"scale":[0.0010000000000000002,0.0010000000000000002,0.001],"rotation":[-0.18212793200813512,0.6832491612745968,0.6832491612745969,0.18212793200813515],"name":"U shape","mesh":2},{"translation":[-0.07419197754937129,0.09499848849009995,-0.028612890573247507],"scale":[0.0010000000000000002,0.0010000000000000002,0.001],"rotation":[-0.414158327331555,0.5731255359011047,0.5731255359011048,0.41415832733155505],"name":"Torus","mesh":3},{"translation":[-0.031249635886962304,0.06020581756500292,0.02783368732846993],"scale":[0.0005174071369557806,0.0005174071369557806,0.0005174071369557806],"rotation":[0.333429511174164,0.6235581457074857,0.6235581457074858,-0.33342951117416403],"name":"Sphere","mesh":4},{"translation":[0.07628928367463028,0.014816396555576742,0.028941104742688916],"scale":[0.00042474196921728257,0.0004247419692172826,0.0004247419692172826],"rotation":[0.20344469765233333,0.20344469765233333,0.6772076897061571,0.677207689706157],"name":"Wave","mesh":5},{"translation":[-0.07419197660193794,0.059665109221453703,-0.028612890037463423],"scale":[0.001,0.001,0.001],"rotation":[-0.5,0.4999999999999999,0.5,0.5000000000000001],"name":"Half torus","mesh":6},{"translation":[-0.001424135795331111,0.010040440384860091,-0.08413557846981438],"scale":[0.001,0.0014934820863779315,0.001],"rotation":[-0.5,0.4999999999999999,0.5,0.5000000000000001],"name":"Wall","mesh":7},{"translation":[0.07460058969750052,0.000040440384860069404,0.02992193520072741],"scale":[0.001,0.001,0.001],"rotation":[-0.5,0.4999999999999999,0.5,0.5000000000000001],"name":"Object"},{"translation":[0.04629261524505022,0.013755643363591375,0.04562173993224286],"scale":[0.00025152281424123955,0.00025152281424123955,0.00025152281424123955],"rotation":[-0.7071067811865475,0,0,0.7071067811865476],"name":"Circle from \"Sharp Shapes\" collection","children":[10,11,12]},{"translation":[0,0,0],"scale":[1,1,1],"rotation":[0,0,0,1],"name":"Outer Tube","mesh":8},{"translation":[0,7.105427357601002e-15,5.343181610107422],"scale":[1,1,1],"rotation":[0,0,0,1],"name":"Middle Tube","mesh":9},{"translation":[0,-3.552713678800501e-15,64.8393466770649],"scale":[1,1,1],"rotation":[0,0,0,1],"name":"Center Tube","mesh":10},{"translation":[0.14142375386100411,0.35906781573915736,0.37160556242051],"scale":[1,1,1],"rotation":[-0.29961916415226864,0.1621946024257543,0.051767661315927416,0.9387445747691576],"name":"Camera","camera":0}],"materials":[{"pbrMetallicRoughness":{"baseColorFactor":[0.6320426176206414,0.6320426176206414,0.6320426176206414,1],"metallicFactor":1,"roughnessFactor":0},"name":"Sharp Shapes Shiny 3","emissiveFactor":[0,0,0],"alphaMode":"OPAQUE","doubleSided":false}],"meshes":[{"primitives":[{"mode":4,"attributes":{"POSITION":1,"NORMAL":2,"TEXCOORD_0":3},"material":0,"indices":0}]},{"primitives":[{"mode":4,"attributes":{"POSITION":5,"NORMAL":6,"TEXCOORD_0":7},"material":0,"indices":4}]},{"primitives":[{"mode":4,"attributes":{"POSITION":9,"NORMAL":10,"TEXCOORD_0":11},"material":0,"indices":8}]},{"primitives":[{"mode":4,"attributes":{"POSITION":13,"NORMAL":14,"TEXCOORD_0":15},"material":0,"indices":12}]},{"primitives":[{"mode":4,"attributes":{"POSITION":17,"NORMAL":18,"TEXCOORD_0":19},"material":0,"indices":16}]},{"primitives":[{"mode":4,"attributes":{"POSITION":21,"NORMAL":22,"TEXCOORD_0":23},"material":0,"indices":20}]},{"primitives":[{"mode":4,"attributes":{"POSITION":25,"NORMAL":26,"TEXCOORD_0":27},"material":0,"indices":24}]},{"primitives":[{"mode":4,"attributes":{"POSITION":29,"NORMAL":30,"TEXCOORD_0":31},"material":0,"indices":28}]},{"primitives":[{"mode":4,"attributes":{"POSITION":33,"NORMAL":34,"TEXCOORD_0":35},"material":0,"indices":32}]},{"primitives":[{"mode":4,"attributes":{"POSITION":37,"NORMAL":38,"TEXCOORD_0":39},"material":0,"indices":36}]},{"primitives":[{"mode":4,"attributes":{"POSITION":41,"NORMAL":42,"TEXCOORD_0":43},"material":0,"indices":40}]}],"accessors":[{"bufferView":0,"byteOffset":0,"componentType":5125,"count":12096,"type":"SCALAR"},{"bufferView":1,"byteOffset":0,"componentType":5126,"count":12096,"max":[86.23196411132812,86.23196411132812,50],"min":[-86.23196411132812,-86.23196411132812,6.063400649625184e-17],"type":"VEC3"},{"bufferView":2,"byteOffset":0,"componentType":5126,"count":12096,"type":"VEC3"},{"bufferView":3,"byteOffset":0,"componentType":5126,"count":12096,"type":"VEC2"},{"bufferView":4,"byteOffset":0,"componentType":5125,"count":11148,"type":"SCALAR"},{"bufferView":5,"byteOffset":0,"componentType":5126,"count":11148,"max":[99.79066467285156,150.81329345703125,10],"min":[-99.79066467285156,-150.81329345703125,0],"type":"VEC3"},{"bufferView":6,"byteOffset":0,"componentType":5126,"count":11148,"type":"VEC3"},{"bufferView":7,"byteOffset":0,"componentType":5126,"count":11148,"type":"VEC2"},{"bufferView":8,"byteOffset":0,"componentType":5125,"count":2976,"type":"SCALAR"},{"bufferView":9,"byteOffset":0,"componentType":5126,"count":2976,"max":[46.757606506347656,14.806001663208008,145.6949005126953],"min":[-46.757606506347656,-14.806001663208008,0],"type":"VEC3"},{"bufferView":10,"byteOffset":0,"componentType":5126,"count":2976,"type":"VEC3"},{"bufferView":11,"byteOffset":0,"componentType":5126,"count":2976,"type":"VEC2"},{"bufferView":12,"byteOffset":0,"componentType":5125,"count":7680,"type":"SCALAR"},{"bufferView":13,"byteOffset":0,"componentType":5126,"count":7680,"max":[13.874658584594727,35.873069763183594,71.79298400878906],"min":[-13.874658584594727,-35.873069763183594,6.661338147750939e-15],"type":"VEC3"},{"bufferView":14,"byteOffset":0,"componentType":5126,"count":7680,"type":"VEC3"},{"bufferView":15,"byteOffset":0,"componentType":5126,"count":7680,"type":"VEC2"},{"bufferView":16,"byteOffset":0,"componentType":5125,"count":38640,"type":"SCALAR"},{"bufferView":17,"byteOffset":0,"componentType":5126,"count":38640,"max":[58.12544250488281,58.08751678466797,114.10686492919922],"min":[-58.12544250488281,-58.08751678466797,6.938893903907228e-17],"type":"VEC3"},{"bufferView":18,"byteOffset":0,"componentType":5126,"count":38640,"type":"VEC3"},{"bufferView":19,"byteOffset":0,"componentType":5126,"count":38640,"type":"VEC2"},{"bufferView":20,"byteOffset":0,"componentType":5125,"count":3552,"type":"SCALAR"},{"bufferView":21,"byteOffset":0,"componentType":5126,"count":3552,"max":[11.984047889709473,158.00209045410156,73.21829223632812],"min":[-11.984047889709473,-158.00209045410156,7.993605777301127e-15],"type":"VEC3"},{"bufferView":22,"byteOffset":0,"componentType":5126,"count":3552,"type":"VEC3"},{"bufferView":23,"byteOffset":0,"componentType":5126,"count":3552,"type":"VEC2"},{"bufferView":24,"byteOffset":0,"componentType":5125,"count":7488,"type":"SCALAR"},{"bufferView":25,"byteOffset":0,"componentType":5126,"count":7488,"max":[20.98725128173828,35.16250228881836,35.896488189697266],"min":[-20.98725128173828,-35.16250228881836,0],"type":"VEC3"},{"bufferView":26,"byteOffset":0,"componentType":5126,"count":7488,"type":"VEC3"},{"bufferView":27,"byteOffset":0,"componentType":5126,"count":7488,"type":"VEC2"},{"bufferView":28,"byteOffset":0,"componentType":5125,"count":15234,"type":"SCALAR"},{"bufferView":29,"byteOffset":0,"componentType":5126,"count":15234,"max":[3.068375587463379,50,195.77386474609375],"min":[-3.068375587463379,-50,-7.453889935837843e-19],"type":"VEC3"},{"bufferView":30,"byteOffset":0,"componentType":5126,"count":15234,"type":"VEC3"},{"bufferView":31,"byteOffset":0,"componentType":5126,"count":15234,"type":"VEC2"},{"bufferView":32,"byteOffset":0,"componentType":5125,"count":6336,"type":"SCALAR"},{"bufferView":33,"byteOffset":0,"componentType":5126,"count":6336,"max":[86.16846466064453,30,172.33773803710938],"min":[-86.16846466064453,-30,0],"type":"VEC3"},{"bufferView":34,"byteOffset":0,"componentType":5126,"count":6336,"type":"VEC3"},{"bufferView":35,"byteOffset":0,"componentType":5126,"count":6336,"type":"VEC2"},{"bufferView":36,"byteOffset":0,"componentType":5125,"count":4032,"type":"SCALAR"},{"bufferView":37,"byteOffset":0,"componentType":5126,"count":4032,"max":[80.82525634765625,29.969688415527344,161.6513671875],"min":[-80.82525634765625,-29.969688415527344,0],"type":"VEC3"},{"bufferView":38,"byteOffset":0,"componentType":5126,"count":4032,"type":"VEC3"},{"bufferView":39,"byteOffset":0,"componentType":5126,"count":4032,"type":"VEC2"},{"bufferView":40,"byteOffset":0,"componentType":5125,"count":5184,"type":"SCALAR"},{"bufferView":41,"byteOffset":0,"componentType":5126,"count":5184,"max":[21.329023361206055,29.992780685424805,42.65904998779297],"min":[-21.329023361206055,-29.992780685424805,0],"type":"VEC3"},{"bufferView":42,"byteOffset":0,"componentType":5126,"count":5184,"type":"VEC3"},{"bufferView":43,"byteOffset":0,"componentType":5126,"count":5184,"type":"VEC2"}],"bufferViews":[{"buffer":0,"byteOffset":0,"byteLength":48384,"target":34963},{"buffer":0,"byteOffset":48384,"byteLength":145152,"target":34962},{"buffer":0,"byteOffset":193536,"byteLength":145152,"target":34962},{"buffer":0,"byteOffset":338688,"byteLength":96768,"target":34962},{"buffer":0,"byteOffset":435456,"byteLength":44592,"target":34963},{"buffer":0,"byteOffset":480048,"byteLength":133776,"target":34962},{"buffer":0,"byteOffset":613824,"byteLength":133776,"target":34962},{"buffer":0,"byteOffset":747600,"byteLength":89184,"target":34962},{"buffer":0,"byteOffset":836784,"byteLength":11904,"target":34963},{"buffer":0,"byteOffset":848688,"byteLength":35712,"target":34962},{"buffer":0,"byteOffset":884400,"byteLength":35712,"target":34962},{"buffer":0,"byteOffset":920112,"byteLength":23808,"target":34962},{"buffer":0,"byteOffset":943920,"byteLength":30720,"target":34963},{"buffer":0,"byteOffset":974640,"byteLength":92160,"target":34962},{"buffer":0,"byteOffset":1066800,"byteLength":92160,"target":34962},{"buffer":0,"byteOffset":1158960,"byteLength":61440,"target":34962},{"buffer":0,"byteOffset":1220400,"byteLength":154560,"target":34963},{"buffer":0,"byteOffset":1374960,"byteLength":463680,"target":34962},{"buffer":0,"byteOffset":1838640,"byteLength":463680,"target":34962},{"buffer":0,"byteOffset":2302320,"byteLength":309120,"target":34962},{"buffer":0,"byteOffset":2611440,"byteLength":14208,"target":34963},{"buffer":0,"byteOffset":2625648,"byteLength":42624,"target":34962},{"buffer":0,"byteOffset":2668272,"byteLength":42624,"target":34962},{"buffer":0,"byteOffset":2710896,"byteLength":28416,"target":34962},{"buffer":0,"byteOffset":2739312,"byteLength":29952,"target":34963},{"buffer":0,"byteOffset":2769264,"byteLength":89856,"target":34962},{"buffer":0,"byteOffset":2859120,"byteLength":89856,"target":34962},{"buffer":0,"byteOffset":2948976,"byteLength":59904,"target":34962},{"buffer":0,"byteOffset":3008880,"byteLength":60936,"target":34963},{"buffer":0,"byteOffset":3069816,"byteLength":182808,"target":34962},{"buffer":0,"byteOffset":3252624,"byteLength":182808,"target":34962},{"buffer":0,"byteOffset":3435432,"byteLength":121872,"target":34962},{"buffer":0,"byteOffset":3557304,"byteLength":25344,"target":34963},{"buffer":0,"byteOffset":3582648,"byteLength":76032,"target":34962},{"buffer":0,"byteOffset":3658680,"byteLength":76032,"target":34962},{"buffer":0,"byteOffset":3734712,"byteLength":50688,"target":34962},{"buffer":0,"byteOffset":3785400,"byteLength":16128,"target":34963},{"buffer":0,"byteOffset":3801528,"byteLength":48384,"target":34962},{"buffer":0,"byteOffset":3849912,"byteLength":48384,"target":34962},{"buffer":0,"byteOffset":3898296,"byteLength":32256,"target":34962},{"buffer":0,"byteOffset":3930552,"byteLength":20736,"target":34963},{"buffer":0,"byteOffset":3951288,"byteLength":62208,"target":34962},{"buffer":0,"byteOffset":4013496,"byteLength":62208,"target":34962},{"buffer":0,"byteOffset":4075704,"byteLength":41472,"target":34962}],"cameras":[{"name":"Camera","type":"perspective","extras":{"targetDistance":0.4567312271528972},"perspective":{"aspectRatio":1.2662337662337662,"yfov":0.6108652381980153,"zfar":37.319518583668454,"znear":0.002777529538850184}}],"scene":0,"scenes":[{"nodes":[0,1,2,3,4,5,6,7,8,9,13],"name":"Project Name"}],"extensionsUsed":["KHR_texture_transform"],"buffers":[{"byteLength":4117176,"uri":"ProjectName.bin"}]}